<svg width="54" height="182" viewBox="0 0 54 182" fill="none" xmlns="http://www.w3.org/2000/svg">
<mask id="path-1-outside-1_15_11094" maskUnits="userSpaceOnUse" x="-20" y="-20" width="94" height="222" fill="black">
<rect fill="white" x="-20" y="-20" width="94" height="222"/>
<path d="M44.7197 160.761C44.7197 158.277 44.4463 156.26 43.8994 154.711C42.8512 151.771 40.903 150.302 38.0547 150.302C36.3913 150.302 35.1038 151.031 34.1924 152.489C33.3037 153.948 32.5176 156.238 31.834 159.359L30.6377 164.691C29.4528 169.932 28.1654 173.555 26.7754 175.561C24.4512 178.956 20.8167 180.653 15.8721 180.653C11.3604 180.653 7.61198 179.013 4.62695 175.731C1.64193 172.45 0.149413 167.631 0.149413 161.273C0.149413 155.964 1.56217 151.441 4.38769 147.704C7.19043 143.944 11.2692 141.973 16.624 141.791L16.624 151.908C13.5934 152.09 11.4401 153.412 10.1641 155.873C9.32096 157.514 8.89941 159.553 8.89941 161.991C8.89941 164.703 9.44629 166.868 10.54 168.485C11.6338 170.103 13.1605 170.912 15.1201 170.912C16.9202 170.912 18.2646 170.115 19.1533 168.52C19.7458 167.494 20.4408 165.307 21.2383 161.957L23.3232 153.275C24.2347 149.47 25.4538 146.599 26.9805 144.662C29.3503 141.654 32.7796 140.15 37.2686 140.15C41.8714 140.15 45.6995 141.916 48.7529 145.448C51.7835 148.957 53.2988 153.925 53.2988 160.351C53.2988 166.913 51.8063 172.074 48.8213 175.834C45.8135 179.594 41.6891 181.474 36.4482 181.474L36.4482 171.425C38.7497 171.106 40.4701 170.479 41.6094 169.545C43.6829 167.836 44.7197 164.908 44.7197 160.761ZM41.6436 102.86L41.6436 121.42L52 124.906L52 135.912L1.61914 117.934L1.61914 106.039L52 88.1973L52 99.6133L41.6436 102.86ZM32.9619 105.8L13.1377 112.089L32.9619 118.583L32.9619 105.8ZM1.61914 81.7715L1.61914 71.2441L42.9424 71.2441L42.9424 46.293L52 46.293L52 81.7715L1.61914 81.7715ZM29.9883 3.91015L29.9883 28.3828L42.9424 28.3828L42.9424 0.492185L52 0.492185L52 38.6709L1.61913 38.6709L1.61913 1.72266L10.54 1.72266L10.54 28.3828L21.2383 28.3828L21.2383 3.91015L29.9883 3.91015Z"/>
</mask>
<path d="M44.7197 160.761C44.7197 158.277 44.4463 156.26 43.8994 154.711C42.8512 151.771 40.903 150.302 38.0547 150.302C36.3913 150.302 35.1038 151.031 34.1924 152.489C33.3037 153.948 32.5176 156.238 31.834 159.359L30.6377 164.691C29.4528 169.932 28.1654 173.555 26.7754 175.561C24.4512 178.956 20.8167 180.653 15.8721 180.653C11.3604 180.653 7.61198 179.013 4.62695 175.731C1.64193 172.45 0.149413 167.631 0.149413 161.273C0.149413 155.964 1.56217 151.441 4.38769 147.704C7.19043 143.944 11.2692 141.973 16.624 141.791L16.624 151.908C13.5934 152.09 11.4401 153.412 10.1641 155.873C9.32096 157.514 8.89941 159.553 8.89941 161.991C8.89941 164.703 9.44629 166.868 10.54 168.485C11.6338 170.103 13.1605 170.912 15.1201 170.912C16.9202 170.912 18.2646 170.115 19.1533 168.52C19.7458 167.494 20.4408 165.307 21.2383 161.957L23.3232 153.275C24.2347 149.47 25.4538 146.599 26.9805 144.662C29.3503 141.654 32.7796 140.15 37.2686 140.15C41.8714 140.15 45.6995 141.916 48.7529 145.448C51.7835 148.957 53.2988 153.925 53.2988 160.351C53.2988 166.913 51.8063 172.074 48.8213 175.834C45.8135 179.594 41.6891 181.474 36.4482 181.474L36.4482 171.425C38.7497 171.106 40.4701 170.479 41.6094 169.545C43.6829 167.836 44.7197 164.908 44.7197 160.761ZM41.6436 102.86L41.6436 121.42L52 124.906L52 135.912L1.61914 117.934L1.61914 106.039L52 88.1973L52 99.6133L41.6436 102.86ZM32.9619 105.8L13.1377 112.089L32.9619 118.583L32.9619 105.8ZM1.61914 81.7715L1.61914 71.2441L42.9424 71.2441L42.9424 46.293L52 46.293L52 81.7715L1.61914 81.7715ZM29.9883 3.91015L29.9883 28.3828L42.9424 28.3828L42.9424 0.492185L52 0.492185L52 38.6709L1.61913 38.6709L1.61913 1.72266L10.54 1.72266L10.54 28.3828L21.2383 28.3828L21.2383 3.91015L29.9883 3.91015Z" fill="#FF00C7"/>
<path d="M43.8994 154.711L62.7592 148.055C62.752 148.034 62.7448 148.014 62.7376 147.993L43.8994 154.711ZM34.1924 152.489L17.2324 141.889C17.1924 141.953 17.1528 142.017 17.1136 142.082L34.1924 152.489ZM31.834 159.359L51.3489 163.738C51.3563 163.704 51.3637 163.671 51.3711 163.638L31.834 159.359ZM30.6377 164.691L50.1453 169.102C50.1478 169.091 50.1502 169.08 50.1526 169.07L30.6377 164.691ZM26.7754 175.561L10.3383 164.167C10.3161 164.199 10.294 164.231 10.272 164.263L26.7754 175.561ZM4.38769 147.704L20.3409 159.766C20.3682 159.73 20.3955 159.694 20.4226 159.657L4.38769 147.704ZM16.624 141.791L36.624 141.791C36.624 136.369 34.4224 131.179 30.5235 127.41C26.6246 123.642 21.3628 121.618 15.9436 121.803L16.624 141.791ZM16.624 151.908L17.8249 171.872C28.3851 171.237 36.624 162.488 36.624 151.908L16.624 151.908ZM10.1641 155.873L-7.59103 146.667C-7.60225 146.688 -7.61343 146.71 -7.62457 146.732L10.1641 155.873ZM10.54 168.485L-6.02881 179.687L10.54 168.485ZM19.1533 168.52L1.83602 158.514C1.78396 158.604 1.73261 158.695 1.68196 158.785L19.1533 168.52ZM21.2383 161.957L1.79123 157.287C1.78819 157.299 1.78517 157.312 1.78216 157.325L21.2383 161.957ZM23.3232 153.275L42.7703 157.946L42.7731 157.934L23.3232 153.275ZM26.9805 144.662L42.6876 157.043L42.6903 157.04L26.9805 144.662ZM48.7529 145.448L63.8894 132.376L63.8828 132.368L48.7529 145.448ZM48.8213 175.834L64.4387 188.328C64.4541 188.309 64.4695 188.289 64.4849 188.27L48.8213 175.834ZM36.4482 181.474L16.4482 181.474C16.4482 192.519 25.4025 201.474 36.4482 201.474L36.4482 181.474ZM36.4482 171.425L33.7022 151.614C23.8122 152.985 16.4482 161.44 16.4482 171.425L36.4482 171.425ZM41.6094 169.545L54.291 185.01C54.3038 185 54.3166 184.989 54.3295 184.979L41.6094 169.545ZM64.7197 160.761C64.7197 157.049 64.3427 152.541 62.7592 148.055L25.0396 161.367C24.8988 160.968 24.8153 160.653 24.7673 160.444C24.7192 160.235 24.7005 160.106 24.696 160.073C24.6891 160.022 24.7197 160.23 24.7197 160.761L64.7197 160.761ZM62.7376 147.993C61.2643 143.862 58.5541 139.102 53.6969 135.438C48.6955 131.665 43.0714 130.302 38.0547 130.302L38.0547 170.302C35.8863 170.302 32.6604 169.674 29.6073 167.37C26.6983 165.176 25.4863 162.62 25.0613 161.428L62.7376 147.993ZM38.0547 130.302C29.2165 130.302 21.6483 134.824 17.2324 141.889L51.1523 163.089C50.1314 164.723 48.3901 166.727 45.6979 168.251C42.9767 169.793 40.2402 170.302 38.0547 170.302L38.0547 130.302ZM17.1136 142.082C14.466 146.427 13.1167 151.337 12.2969 155.081L51.3711 163.638C51.4808 163.137 51.5807 162.733 51.6668 162.416C51.7535 162.097 51.818 161.895 51.8527 161.794C51.8887 161.689 51.8779 161.735 51.8053 161.898C51.7354 162.054 51.5675 162.41 51.2712 162.897L17.1136 142.082ZM12.3191 154.981L11.1228 160.313L50.1526 169.07L51.3489 163.738L12.3191 154.981ZM11.1301 160.281C10.6497 162.406 10.2347 163.808 9.93791 164.643C9.79455 165.046 9.72043 165.199 9.73806 165.162C9.74731 165.142 9.92818 164.758 10.3383 164.167L43.2125 186.954C46.9794 181.52 48.912 174.557 50.1453 169.102L11.1301 160.281ZM10.272 164.263C11.0766 163.088 12.3314 161.965 13.8425 161.259C15.2179 160.617 16.0844 160.653 15.8721 160.653L15.8721 200.653C25.8952 200.653 36.4421 196.845 43.2788 186.858L10.272 164.263ZM15.8721 160.653C16.0914 160.653 16.7931 160.706 17.6963 161.101C18.6076 161.5 19.1832 162.011 19.4211 162.273L-10.1672 189.19C-3.31868 196.718 5.8376 200.653 15.8721 200.653L15.8721 160.653ZM19.4211 162.273C19.7666 162.653 20.0113 163.016 20.172 163.307C20.329 163.591 20.3787 163.756 20.3736 163.739C20.3517 163.669 20.1494 162.943 20.1494 161.273L-19.8506 161.273C-19.8506 170.47 -17.7062 180.903 -10.1672 189.19L19.4211 162.273ZM20.1494 161.273C20.1494 160.401 20.2636 159.977 20.2994 159.862C20.3271 159.773 20.3334 159.776 20.3409 159.766L-11.5655 135.642C-17.3613 143.307 -19.8506 152.218 -19.8506 161.273L20.1494 161.273ZM20.4226 159.657C19.972 160.262 19.2107 160.95 18.2508 161.414C17.3679 161.84 16.9081 161.793 17.3045 161.779L15.9436 121.803C5.49235 122.158 -4.6663 126.386 -11.6472 135.751L20.4226 159.657ZM-3.37598 141.791L-3.37598 151.908L36.624 151.908L36.624 141.791L-3.37598 141.791ZM15.4232 131.944C6.17295 132.501 -2.71895 137.271 -7.59103 146.667L27.9192 165.079C27.0515 166.753 25.5162 168.659 23.1979 170.082C20.9619 171.454 18.9319 171.806 17.8249 171.872L15.4232 131.944ZM-7.62457 146.732C-10.312 151.961 -11.1006 157.357 -11.1006 161.991L28.8994 161.991C28.8994 161.75 28.954 163.066 27.9527 165.014L-7.62457 146.732ZM-11.1006 161.991C-11.1006 167.195 -10.0729 173.705 -6.02881 179.687L27.1089 157.284C28.9654 160.03 28.8994 162.211 28.8994 161.991L-11.1006 161.991ZM-6.02881 179.687C-1.19997 186.829 6.54702 190.912 15.1201 190.912L15.1201 150.912C16.9618 150.912 19.3804 151.314 21.8692 152.633C24.3606 153.953 26.0626 155.736 27.1089 157.284L-6.02881 179.687ZM15.1201 190.912C19.058 190.912 23.4786 190.009 27.6826 187.515C31.8719 185.03 34.7522 181.614 36.6247 178.254L1.68196 158.785C2.66572 157.02 4.42949 154.801 7.27448 153.113C10.134 151.417 12.9824 150.912 15.1201 150.912L15.1201 190.912ZM36.4706 178.525C38.758 174.566 40.0004 169.504 40.6944 166.589L1.78216 157.325C1.61969 158.007 1.47495 158.577 1.34858 159.046C1.22094 159.52 1.12328 159.848 1.05777 160.054C0.98782 160.274 0.982965 160.265 1.05189 160.093C1.08915 160 1.16324 159.822 1.27771 159.578C1.38913 159.341 1.57225 158.971 1.83602 158.514L36.4706 178.525ZM40.6853 166.627L42.7703 157.946L3.87619 148.605L1.79123 157.287L40.6853 166.627ZM42.7731 157.934C42.8993 157.407 43.0172 156.992 43.1179 156.677C43.2189 156.36 43.2943 156.17 43.3304 156.085C43.3669 155.999 43.3504 156.051 43.2605 156.208C43.1707 156.365 42.9887 156.661 42.6876 157.043L11.2734 132.281C7.20942 137.437 5.10671 143.468 3.87338 148.617L42.7731 157.934ZM42.6903 157.04C41.8903 158.055 40.7254 158.997 39.3622 159.594C38.0932 160.151 37.2496 160.15 37.2686 160.15L37.2686 120.15C27.8367 120.15 18.1102 123.604 11.2706 132.285L42.6903 157.04ZM37.2686 160.15C36.9461 160.15 36.1603 160.072 35.2141 159.636C34.2752 159.203 33.7579 158.684 33.6231 158.528L63.8828 132.368C57.093 124.514 47.7753 120.15 37.2686 120.15L37.2686 160.15ZM33.6165 158.521C33.1042 157.928 32.9898 157.501 33.0326 157.641C33.0955 157.847 33.2988 158.666 33.2988 160.351L73.2988 160.351C73.2988 150.972 71.0841 140.707 63.8894 132.376L33.6165 158.521ZM33.2988 160.351C33.2988 164.04 32.4601 164.277 33.1577 163.398L64.4849 188.27C71.1525 179.872 73.2988 169.786 73.2988 160.351L33.2988 160.351ZM33.2039 163.34C33.5344 162.927 34.2079 162.307 35.1772 161.865C36.0958 161.446 36.6516 161.474 36.4482 161.474L36.4482 201.474C47.1497 201.474 57.2671 197.292 64.4387 188.328L33.2039 163.34ZM56.4482 181.474L56.4482 171.425L16.4482 171.425L16.4482 181.474L56.4482 181.474ZM39.1943 191.235C43.2244 190.677 49.1057 189.262 54.291 185.01L28.9278 154.08C30.4669 152.817 31.8546 152.202 32.6197 151.923C33.3844 151.645 33.8087 151.599 33.7022 151.614L39.1943 191.235ZM54.3295 184.979C63.051 177.791 64.7197 167.61 64.7197 160.761L24.7197 160.761C24.7197 161.275 24.6418 160.655 25.0891 159.392C25.5903 157.976 26.7118 155.906 28.8893 154.111L54.3295 184.979ZM41.6436 102.86L35.6601 83.7764C27.3197 86.3913 21.6436 94.1196 21.6436 102.86L41.6436 102.86ZM41.6436 121.42L21.6436 121.42C21.6436 130.007 27.1247 137.635 35.2627 140.375L41.6436 121.42ZM52 124.906L72 124.906C72 116.319 66.5189 108.691 58.3808 105.951L52 124.906ZM52 135.912L45.2781 154.749C51.4029 156.934 58.2079 156.006 63.5231 152.259C68.8383 148.512 72 142.415 72 135.912L52 135.912ZM1.61914 117.934L-18.3809 117.934C-18.3809 126.388 -13.0651 133.929 -5.10273 136.77L1.61914 117.934ZM1.61914 106.039L-5.05733 87.1863C-13.0432 90.0145 -18.3809 97.5672 -18.3809 106.039L1.61914 106.039ZM52 88.1973L72 88.1973C72 81.7027 68.8465 75.6126 63.5428 71.8643C58.239 68.1161 51.4455 67.1765 45.3235 69.3446L52 88.1973ZM52 99.6133L57.9834 118.697C66.3239 116.082 72 108.354 72 99.6133L52 99.6133ZM32.9619 105.8L52.9619 105.8C52.9619 99.4222 49.9203 93.427 44.7739 89.6605C39.6274 85.8939 32.9931 84.8076 26.9141 86.7361L32.9619 105.8ZM13.1377 112.089L7.0899 93.0252C-1.18498 95.6503 -6.82141 103.314 -6.86209 111.995C-6.90276 120.676 -1.33839 128.392 6.91153 131.095L13.1377 112.089ZM32.9619 118.583L26.7357 137.589C32.8278 139.585 39.5073 138.539 44.6981 134.777C49.8889 131.016 52.9619 124.994 52.9619 118.583L32.9619 118.583ZM21.6436 102.86L21.6436 121.42L61.6436 121.42L61.6436 102.86L21.6436 102.86ZM35.2627 140.375L45.6192 143.861L58.3808 105.951L48.0244 102.465L35.2627 140.375ZM32 124.906L32 135.912L72 135.912L72 124.906L32 124.906ZM58.7219 117.076L8.34101 99.097L-5.10273 136.77L45.2781 154.749L58.7219 117.076ZM21.6191 117.934L21.6191 106.039L-18.3809 106.039L-18.3809 117.934L21.6191 117.934ZM8.29561 124.892L58.6765 107.05L45.3235 69.3446L-5.05733 87.1863L8.29561 124.892ZM32 88.1973L32 99.6133L72 99.6133L72 88.1973L32 88.1973ZM46.0166 80.5293L35.6601 83.7764L47.627 121.944L57.9834 118.697L46.0166 80.5293ZM26.9141 86.7361L7.0899 93.0252L19.1855 131.153L39.0097 124.863L26.9141 86.7361ZM6.91153 131.095L26.7357 137.589L39.1881 99.5768L19.3639 93.0827L6.91153 131.095ZM52.9619 118.583L52.9619 105.8L12.9619 105.8L12.9619 118.583L52.9619 118.583ZM1.61914 81.7715L-18.3809 81.7715C-18.3809 92.8172 -9.42656 101.771 1.61914 101.771L1.61914 81.7715ZM1.61914 71.2441L1.61913 51.2441C-9.42656 51.2441 -18.3809 60.1984 -18.3809 71.2441L1.61914 71.2441ZM42.9424 71.2441L42.9424 91.2441C53.9881 91.2441 62.9424 82.2898 62.9424 71.2441L42.9424 71.2441ZM42.9424 46.293L42.9424 26.293C31.8967 26.293 22.9424 35.2473 22.9424 46.293L42.9424 46.293ZM52 46.293L72 46.293C72 35.2473 63.0457 26.293 52 26.293L52 46.293ZM52 81.7715L52 101.771C63.0457 101.771 72 92.8172 72 81.7715L52 81.7715ZM21.6191 81.7715L21.6191 71.2441L-18.3809 71.2441L-18.3809 81.7715L21.6191 81.7715ZM1.61914 91.2441L42.9424 91.2441L42.9424 51.2441L1.61913 51.2441L1.61914 91.2441ZM62.9424 71.2441L62.9424 46.293L22.9424 46.293L22.9424 71.2441L62.9424 71.2441ZM42.9424 66.293L52 66.293L52 26.293L42.9424 26.293L42.9424 66.293ZM32 46.293L32 81.7715L72 81.7715L72 46.293L32 46.293ZM52 61.7715L1.61914 61.7715L1.61914 101.771L52 101.771L52 61.7715ZM29.9883 3.91015L49.9883 3.91015C49.9883 -7.13554 41.034 -16.0898 29.9883 -16.0898L29.9883 3.91015ZM29.9883 28.3828L9.98827 28.3828C9.98827 39.4285 18.9426 48.3828 29.9883 48.3828L29.9883 28.3828ZM42.9424 28.3828L42.9424 48.3828C53.9881 48.3828 62.9424 39.4285 62.9424 28.3828L42.9424 28.3828ZM42.9424 0.492185L42.9424 -19.5078C31.8967 -19.5078 22.9424 -10.5535 22.9424 0.492186L42.9424 0.492185ZM52 0.492185L72 0.492184C72 -10.5535 63.0457 -19.5078 52 -19.5078L52 0.492185ZM52 38.6709L52 58.6709C63.0457 58.6709 72 49.7166 72 38.6709L52 38.6709ZM1.61913 38.6709L-18.3809 38.6709C-18.3809 49.7166 -9.42656 58.6709 1.61914 58.6709L1.61913 38.6709ZM1.61913 1.72266L1.61913 -18.2773C-9.42656 -18.2773 -18.3809 -9.32304 -18.3809 1.72266L1.61913 1.72266ZM10.54 1.72266L30.54 1.72265C30.54 -9.32304 21.5857 -18.2773 10.54 -18.2773L10.54 1.72266ZM10.54 28.3828L-9.45997 28.3828C-9.45997 39.4285 -0.505662 48.3828 10.54 48.3828L10.54 28.3828ZM21.2383 28.3828L21.2383 48.3828C32.284 48.3828 41.2383 39.4285 41.2383 28.3828L21.2383 28.3828ZM21.2383 3.91015L21.2383 -16.0898C10.1926 -16.0898 1.23827 -7.13554 1.23827 3.91016L21.2383 3.91015ZM9.98827 3.91016L9.98827 28.3828L49.9883 28.3828L49.9883 3.91015L9.98827 3.91016ZM29.9883 48.3828L42.9424 48.3828L42.9424 8.38281L29.9883 8.38281L29.9883 48.3828ZM62.9424 28.3828L62.9424 0.492184L22.9424 0.492186L22.9424 28.3828L62.9424 28.3828ZM42.9424 20.4922L52 20.4922L52 -19.5078L42.9424 -19.5078L42.9424 20.4922ZM32 0.492186L32 38.6709L72 38.6709L72 0.492184L32 0.492186ZM52 18.6709L1.61913 18.6709L1.61914 58.6709L52 58.6709L52 18.6709ZM21.6191 38.6709L21.6191 1.72265L-18.3809 1.72266L-18.3809 38.6709L21.6191 38.6709ZM1.61913 21.7227L10.54 21.7227L10.54 -18.2773L1.61913 -18.2773L1.61913 21.7227ZM-9.45997 1.72266L-9.45997 28.3828L30.54 28.3828L30.54 1.72265L-9.45997 1.72266ZM10.54 48.3828L21.2383 48.3828L21.2383 8.38281L10.54 8.38281L10.54 48.3828ZM41.2383 28.3828L41.2383 3.91015L1.23827 3.91016L1.23827 28.3828L41.2383 28.3828ZM21.2383 23.9102L29.9883 23.9102L29.9883 -16.0898L21.2383 -16.0898L21.2383 23.9102Z" fill="white" mask="url(#path-1-outside-1_15_11094)"/>
</svg>
