<svg width="54" height="181" viewBox="0 0 54 181" fill="none" xmlns="http://www.w3.org/2000/svg">
<mask id="path-1-outside-1_15_11094" maskUnits="userSpaceOnUse" x="-20" y="-21" width="94" height="222" fill="black">
<rect fill="white" x="-20" y="-21" width="94" height="222"/>
<path d="M44.7197 160.261C44.7197 157.777 44.4463 155.76 43.8994 154.211C42.8512 151.271 40.903 149.802 38.0547 149.802C36.3913 149.802 35.1038 150.531 34.1924 151.989C33.3037 153.448 32.5176 155.738 31.834 158.859L30.6377 164.191C29.4528 169.432 28.1654 173.055 26.7754 175.061C24.4512 178.456 20.8167 180.153 15.8721 180.153C11.3603 180.153 7.61198 178.513 4.62695 175.231C1.64192 171.95 0.149412 167.131 0.149411 160.773C0.149411 155.464 1.56217 150.941 4.38769 147.204C7.19043 143.444 11.2692 141.473 16.624 141.291L16.624 151.408C13.5934 151.59 11.4401 152.912 10.1641 155.373C9.32096 157.014 8.89941 159.053 8.89941 161.491C8.89941 164.203 9.44629 166.368 10.54 167.985C11.6338 169.603 13.1605 170.412 15.1201 170.412C16.9202 170.412 18.2646 169.615 19.1533 168.02C19.7458 166.994 20.4408 164.807 21.2383 161.457L23.3232 152.775C24.2347 148.97 25.4538 146.099 26.9805 144.162C29.3503 141.154 32.7796 139.65 37.2686 139.65C41.8714 139.65 45.6995 141.416 48.7529 144.948C51.7835 148.457 53.2988 153.425 53.2988 159.851C53.2988 166.413 51.8063 171.574 48.8213 175.334C45.8135 179.094 41.6891 180.974 36.4482 180.974L36.4482 170.925C38.7497 170.606 40.47 169.979 41.6094 169.045C43.6829 167.336 44.7197 164.408 44.7197 160.261ZM41.6435 102.36L41.6436 120.92L52 124.406L52 135.412L1.61914 117.434L1.61914 105.539L52 87.6973L52 99.1133L41.6435 102.36ZM32.9619 105.3L13.1377 111.589L32.9619 118.083L32.9619 105.3ZM1.61913 81.2715L1.61913 70.7441L42.9424 70.7441L42.9424 45.793L52 45.793L52 81.2715L1.61913 81.2715ZM29.9883 3.41015L29.9883 27.8828L42.9424 27.8828L42.9424 -0.00781556L52 -0.00781595L52 38.1709L1.61913 38.1709L1.61913 1.22265L10.54 1.22265L10.54 27.8828L21.2383 27.8828L21.2383 3.41015L29.9883 3.41015Z"/>
</mask>
<path d="M44.7197 160.261C44.7197 157.777 44.4463 155.76 43.8994 154.211C42.8512 151.271 40.903 149.802 38.0547 149.802C36.3913 149.802 35.1038 150.531 34.1924 151.989C33.3037 153.448 32.5176 155.738 31.834 158.859L30.6377 164.191C29.4528 169.432 28.1654 173.055 26.7754 175.061C24.4512 178.456 20.8167 180.153 15.8721 180.153C11.3603 180.153 7.61198 178.513 4.62695 175.231C1.64192 171.95 0.149412 167.131 0.149411 160.773C0.149411 155.464 1.56217 150.941 4.38769 147.204C7.19043 143.444 11.2692 141.473 16.624 141.291L16.624 151.408C13.5934 151.59 11.4401 152.912 10.1641 155.373C9.32096 157.014 8.89941 159.053 8.89941 161.491C8.89941 164.203 9.44629 166.368 10.54 167.985C11.6338 169.603 13.1605 170.412 15.1201 170.412C16.9202 170.412 18.2646 169.615 19.1533 168.02C19.7458 166.994 20.4408 164.807 21.2383 161.457L23.3232 152.775C24.2347 148.97 25.4538 146.099 26.9805 144.162C29.3503 141.154 32.7796 139.65 37.2686 139.65C41.8714 139.65 45.6995 141.416 48.7529 144.948C51.7835 148.457 53.2988 153.425 53.2988 159.851C53.2988 166.413 51.8063 171.574 48.8213 175.334C45.8135 179.094 41.6891 180.974 36.4482 180.974L36.4482 170.925C38.7497 170.606 40.47 169.979 41.6094 169.045C43.6829 167.336 44.7197 164.408 44.7197 160.261ZM41.6435 102.36L41.6436 120.92L52 124.406L52 135.412L1.61914 117.434L1.61914 105.539L52 87.6973L52 99.1133L41.6435 102.36ZM32.9619 105.3L13.1377 111.589L32.9619 118.083L32.9619 105.3ZM1.61913 81.2715L1.61913 70.7441L42.9424 70.7441L42.9424 45.793L52 45.793L52 81.2715L1.61913 81.2715ZM29.9883 3.41015L29.9883 27.8828L42.9424 27.8828L42.9424 -0.00781556L52 -0.00781595L52 38.1709L1.61913 38.1709L1.61913 1.22265L10.54 1.22265L10.54 27.8828L21.2383 27.8828L21.2383 3.41015L29.9883 3.41015Z" fill="#FF00C7"/>
<path d="M43.8994 154.211L62.7592 147.555C62.752 147.534 62.7448 147.514 62.7376 147.493L43.8994 154.211ZM34.1924 151.989L17.2324 141.389C17.1924 141.453 17.1528 141.517 17.1136 141.582L34.1924 151.989ZM31.834 158.859L51.3489 163.238C51.3563 163.204 51.3637 163.171 51.3711 163.138L31.834 158.859ZM30.6377 164.191L50.1453 168.602C50.1478 168.591 50.1502 168.58 50.1526 168.57L30.6377 164.191ZM26.7754 175.061L10.3383 163.667C10.3161 163.699 10.294 163.731 10.272 163.763L26.7754 175.061ZM4.38769 147.204L20.3409 159.266C20.3682 159.23 20.3955 159.194 20.4226 159.157L4.38769 147.204ZM16.624 141.291L36.624 141.291C36.624 135.869 34.4224 130.679 30.5235 126.91C26.6246 123.142 21.3628 121.118 15.9436 121.303L16.624 141.291ZM16.624 151.408L17.8249 171.372C28.3851 170.737 36.624 161.988 36.624 151.408L16.624 151.408ZM10.1641 155.373L-7.59103 146.167C-7.60225 146.188 -7.61343 146.21 -7.62457 146.232L10.1641 155.373ZM10.54 167.985L-6.02882 179.187L10.54 167.985ZM19.1533 168.02L1.83602 158.014C1.78396 158.104 1.7326 158.195 1.68196 158.285L19.1533 168.02ZM21.2383 161.457L1.79123 156.787C1.78819 156.799 1.78517 156.812 1.78215 156.825L21.2383 161.457ZM23.3232 152.775L42.7703 157.446L42.7731 157.434L23.3232 152.775ZM26.9805 144.162L42.6876 156.543L42.6903 156.54L26.9805 144.162ZM48.7529 144.948L63.8894 131.876L63.8828 131.868L48.7529 144.948ZM48.8213 175.334L64.4387 187.828C64.4541 187.809 64.4695 187.789 64.4849 187.77L48.8213 175.334ZM36.4482 180.974L16.4482 180.974C16.4482 192.019 25.4025 200.974 36.4482 200.974L36.4482 180.974ZM36.4482 170.925L33.7022 151.114C23.8122 152.485 16.4482 160.94 16.4482 170.925L36.4482 170.925ZM41.6094 169.045L54.291 184.51C54.3038 184.5 54.3166 184.489 54.3295 184.479L41.6094 169.045ZM64.7197 160.261C64.7197 156.549 64.3427 152.041 62.7592 147.555L25.0396 160.867C24.8988 160.468 24.8153 160.153 24.7673 159.944C24.7192 159.735 24.7005 159.606 24.696 159.573C24.6891 159.522 24.7197 159.73 24.7197 160.261L64.7197 160.261ZM62.7376 147.493C61.2643 143.362 58.5541 138.602 53.6969 134.938C48.6955 131.165 43.0714 129.802 38.0547 129.802L38.0547 169.802C35.8863 169.802 32.6604 169.174 29.6073 166.87C26.6983 164.676 25.4863 162.12 25.0613 160.928L62.7376 147.493ZM38.0547 129.802C29.2165 129.802 21.6483 134.324 17.2324 141.389L51.1523 162.589C50.1314 164.223 48.3901 166.227 45.6979 167.751C42.9767 169.293 40.2402 169.802 38.0547 169.802L38.0547 129.802ZM17.1136 141.582C14.466 145.927 13.1167 150.837 12.2969 154.581L51.3711 163.138C51.4807 162.637 51.5807 162.233 51.6668 161.916C51.7535 161.597 51.818 161.395 51.8527 161.294C51.8887 161.189 51.8779 161.235 51.8053 161.398C51.7354 161.554 51.5675 161.91 51.2712 162.397L17.1136 141.582ZM12.3191 154.481L11.1228 159.813L50.1526 168.57L51.3489 163.238L12.3191 154.481ZM11.13 159.781C10.6497 161.906 10.2347 163.308 9.9379 164.143C9.79455 164.546 9.72042 164.699 9.73805 164.662C9.74731 164.642 9.92818 164.258 10.3383 163.667L43.2125 186.454C46.9794 181.02 48.912 174.057 50.1453 168.602L11.13 159.781ZM10.272 163.763C11.0766 162.588 12.3314 161.465 13.8425 160.759C15.2179 160.117 16.0844 160.153 15.8721 160.153L15.8721 200.153C25.8952 200.153 36.4421 196.345 43.2788 186.358L10.272 163.763ZM15.8721 160.153C16.0914 160.153 16.7931 160.206 17.6963 160.601C18.6076 161 19.1832 161.511 19.4211 161.773L-10.1672 188.69C-3.31868 196.218 5.8376 200.153 15.8721 200.153L15.8721 160.153ZM19.4211 161.773C19.7666 162.153 20.0113 162.516 20.172 162.807C20.329 163.091 20.3787 163.256 20.3736 163.239C20.3517 163.169 20.1494 162.443 20.1494 160.773L-19.8506 160.773C-19.8506 169.97 -17.7062 180.403 -10.1672 188.69L19.4211 161.773ZM20.1494 160.773C20.1494 159.901 20.2636 159.477 20.2994 159.362C20.3271 159.273 20.3334 159.276 20.3409 159.266L-11.5655 135.142C-17.3613 142.807 -19.8506 151.718 -19.8506 160.773L20.1494 160.773ZM20.4226 159.157C19.972 159.762 19.2107 160.45 18.2508 160.914C17.3679 161.34 16.9081 161.293 17.3045 161.279L15.9436 121.303C5.49235 121.658 -4.6663 125.886 -11.6472 135.251L20.4226 159.157ZM-3.37598 141.291L-3.37598 151.408L36.624 151.408L36.624 141.291L-3.37598 141.291ZM15.4232 131.444C6.17295 132.001 -2.71896 136.771 -7.59103 146.167L27.9192 164.579C27.0515 166.253 25.5162 168.159 23.1979 169.582C20.9619 170.954 18.9319 171.306 17.8249 171.372L15.4232 131.444ZM-7.62457 146.232C-10.312 151.461 -11.1006 156.857 -11.1006 161.491L28.8994 161.491C28.8994 161.25 28.954 162.566 27.9527 164.514L-7.62457 146.232ZM-11.1006 161.491C-11.1006 166.695 -10.0729 173.205 -6.02882 179.187L27.1089 156.784C28.9654 159.53 28.8994 161.711 28.8994 161.491L-11.1006 161.491ZM-6.02882 179.187C-1.19997 186.329 6.54702 190.412 15.1201 190.412L15.1201 150.412C16.9618 150.412 19.3804 150.814 21.8692 152.133C24.3606 153.453 26.0626 155.236 27.1089 156.784L-6.02882 179.187ZM15.1201 190.412C19.058 190.412 23.4786 189.509 27.6826 187.015C31.8719 184.53 34.7522 181.114 36.6247 177.754L1.68196 158.285C2.66572 156.52 4.42949 154.301 7.27447 152.613C10.134 150.917 12.9824 150.412 15.1201 150.412L15.1201 190.412ZM36.4706 178.025C38.758 174.066 40.0004 169.004 40.6944 166.089L1.78215 156.825C1.61969 157.507 1.47495 158.077 1.34858 158.546C1.22094 159.02 1.12328 159.348 1.05777 159.554C0.987818 159.774 0.982963 159.765 1.05189 159.593C1.08914 159.5 1.16323 159.322 1.27771 159.078C1.38913 158.841 1.57224 158.471 1.83602 158.014L36.4706 178.025ZM40.6853 166.127L42.7703 157.446L3.87619 148.105L1.79123 156.787L40.6853 166.127ZM42.7731 157.434C42.8993 156.907 43.0172 156.492 43.1179 156.177C43.2189 155.86 43.2943 155.67 43.3304 155.585C43.3669 155.499 43.3504 155.551 43.2605 155.708C43.1707 155.865 42.9887 156.161 42.6876 156.543L11.2734 131.781C7.20942 136.937 5.10671 142.968 3.87338 148.117L42.7731 157.434ZM42.6903 156.54C41.8903 157.555 40.7254 158.497 39.3622 159.094C38.0932 159.651 37.2496 159.65 37.2686 159.65L37.2686 119.65C27.8367 119.65 18.1102 123.104 11.2706 131.785L42.6903 156.54ZM37.2686 159.65C36.9461 159.65 36.1603 159.572 35.2141 159.136C34.2752 158.703 33.7579 158.184 33.6231 158.028L63.8828 131.868C57.093 124.014 47.7753 119.65 37.2686 119.65L37.2686 159.65ZM33.6165 158.021C33.1042 157.428 32.9898 157.001 33.0326 157.141C33.0955 157.347 33.2988 158.166 33.2988 159.851L73.2988 159.851C73.2988 150.472 71.084 140.207 63.8894 131.876L33.6165 158.021ZM33.2988 159.851C33.2988 163.54 32.4601 163.777 33.1577 162.898L64.4849 187.77C71.1525 179.372 73.2988 169.286 73.2988 159.851L33.2988 159.851ZM33.2039 162.84C33.5344 162.427 34.2079 161.807 35.1772 161.365C36.0958 160.946 36.6516 160.974 36.4482 160.974L36.4482 200.974C47.1497 200.974 57.2671 196.792 64.4387 187.828L33.2039 162.84ZM56.4482 180.974L56.4482 170.925L16.4482 170.925L16.4482 180.974L56.4482 180.974ZM39.1943 190.735C43.2244 190.177 49.1057 188.762 54.291 184.51L28.9278 153.58C30.4669 152.317 31.8546 151.702 32.6197 151.423C33.3844 151.145 33.8087 151.099 33.7022 151.114L39.1943 190.735ZM54.3295 184.479C63.051 177.291 64.7197 167.11 64.7197 160.261L24.7197 160.261C24.7197 160.775 24.6418 160.155 25.0891 158.892C25.5903 157.476 26.7118 155.406 28.8893 153.611L54.3295 184.479ZM41.6435 102.36L35.6601 83.2764C27.3197 85.8913 21.6435 93.6196 21.6435 102.36L41.6435 102.36ZM41.6436 120.92L21.6436 120.92C21.6436 129.507 27.1247 137.135 35.2627 139.875L41.6436 120.92ZM52 124.406L72 124.406C72 115.819 66.5189 108.191 58.3808 105.451L52 124.406ZM52 135.412L45.2781 154.249C51.4029 156.434 58.2079 155.506 63.5231 151.759C68.8383 148.012 72 141.915 72 135.412L52 135.412ZM1.61914 117.434L-18.3809 117.434C-18.3809 125.888 -13.0651 133.429 -5.10273 136.27L1.61914 117.434ZM1.61914 105.539L-5.05733 86.6863C-13.0432 89.5144 -18.3809 97.0672 -18.3809 105.539L1.61914 105.539ZM52 87.6973L72 87.6973C72 81.2027 68.8465 75.1126 63.5428 71.3643C58.239 67.6161 51.4455 66.6765 45.3235 68.8446L52 87.6973ZM52 99.1133L57.9834 118.197C66.3239 115.582 72 107.854 72 99.1133L52 99.1133ZM32.9619 105.3L52.9619 105.3C52.9619 98.9222 49.9203 92.927 44.7739 89.1605C39.6274 85.3939 32.9931 84.3076 26.9141 86.2361L32.9619 105.3ZM13.1377 111.589L7.0899 92.5252C-1.18498 95.1503 -6.82142 102.814 -6.86209 111.495C-6.90276 120.176 -1.33839 127.892 6.91153 130.595L13.1377 111.589ZM32.9619 118.083L26.7357 137.089C32.8278 139.085 39.5073 138.039 44.6981 134.277C49.8889 130.516 52.9619 124.494 52.9619 118.083L32.9619 118.083ZM21.6435 102.36L21.6436 120.92L61.6436 120.92L61.6435 102.36L21.6435 102.36ZM35.2627 139.875L45.6192 143.361L58.3808 105.451L48.0244 101.965L35.2627 139.875ZM32 124.406L32 135.412L72 135.412L72 124.406L32 124.406ZM58.7219 116.576L8.34101 98.597L-5.10273 136.27L45.2781 154.249L58.7219 116.576ZM21.6191 117.434L21.6191 105.539L-18.3809 105.539L-18.3809 117.434L21.6191 117.434ZM8.29561 124.392L58.6765 106.55L45.3235 68.8446L-5.05733 86.6863L8.29561 124.392ZM32 87.6973L32 99.1133L72 99.1133L72 87.6973L32 87.6973ZM46.0166 80.0293L35.6601 83.2764L47.627 121.444L57.9834 118.197L46.0166 80.0293ZM26.9141 86.2361L7.0899 92.5252L19.1855 130.653L39.0097 124.363L26.9141 86.2361ZM6.91153 130.595L26.7357 137.089L39.1881 99.0768L19.3639 92.5827L6.91153 130.595ZM52.9619 118.083L52.9619 105.3L12.9619 105.3L12.9619 118.083L52.9619 118.083ZM1.61913 81.2715L-18.3809 81.2715C-18.3809 92.3172 -9.42656 101.271 1.61914 101.271L1.61913 81.2715ZM1.61913 70.7441L1.61913 50.7441C-9.42656 50.7441 -18.3809 59.6984 -18.3809 70.7441L1.61913 70.7441ZM42.9424 70.7441L42.9424 90.7441C53.9881 90.7441 62.9424 81.7898 62.9424 70.7441L42.9424 70.7441ZM42.9424 45.793L42.9424 25.793C31.8967 25.793 22.9424 34.7473 22.9424 45.793L42.9424 45.793ZM52 45.793L72 45.793C72 34.7473 63.0457 25.793 52 25.793L52 45.793ZM52 81.2715L52 101.271C63.0457 101.271 72 92.3172 72 81.2715L52 81.2715ZM21.6191 81.2715L21.6191 70.7441L-18.3809 70.7441L-18.3809 81.2715L21.6191 81.2715ZM1.61913 90.7441L42.9424 90.7441L42.9424 50.7441L1.61913 50.7441L1.61913 90.7441ZM62.9424 70.7441L62.9424 45.793L22.9424 45.793L22.9424 70.7441L62.9424 70.7441ZM42.9424 65.793L52 65.793L52 25.793L42.9424 25.793L42.9424 65.793ZM32 45.793L32 81.2715L72 81.2715L72 45.793L32 45.793ZM52 61.2715L1.61913 61.2715L1.61914 101.271L52 101.271L52 61.2715ZM29.9883 3.41015L49.9883 3.41015C49.9883 -7.63554 41.034 -16.5898 29.9883 -16.5898L29.9883 3.41015ZM29.9883 27.8828L9.98827 27.8828C9.98827 38.9285 18.9426 47.8828 29.9883 47.8828L29.9883 27.8828ZM42.9424 27.8828L42.9424 47.8828C53.9881 47.8828 62.9424 38.9285 62.9424 27.8828L42.9424 27.8828ZM42.9424 -0.00781556L42.9424 -20.0078C31.8967 -20.0078 22.9424 -11.0535 22.9424 -0.00781468L42.9424 -0.00781556ZM52 -0.00781595L72 -0.00781683C72 -11.0535 63.0457 -20.0078 52 -20.0078L52 -0.00781595ZM52 38.1709L52 58.1709C63.0457 58.1709 72 49.2166 72 38.1709L52 38.1709ZM1.61913 38.1709L-18.3809 38.1709C-18.3809 49.2166 -9.42656 58.1709 1.61913 58.1709L1.61913 38.1709ZM1.61913 1.22265L1.61913 -18.7773C-9.42656 -18.7773 -18.3809 -9.82304 -18.3809 1.22266L1.61913 1.22265ZM10.54 1.22265L30.54 1.22265C30.54 -9.82304 21.5857 -18.7773 10.54 -18.7773L10.54 1.22265ZM10.54 27.8828L-9.45997 27.8828C-9.45997 38.9285 -0.505664 47.8828 10.54 47.8828L10.54 27.8828ZM21.2383 27.8828L21.2383 47.8828C32.284 47.8828 41.2383 38.9285 41.2383 27.8828L21.2383 27.8828ZM21.2383 3.41015L21.2383 -16.5898C10.1926 -16.5898 1.23827 -7.63554 1.23827 3.41016L21.2383 3.41015ZM9.98827 3.41015L9.98827 27.8828L49.9883 27.8828L49.9883 3.41015L9.98827 3.41015ZM29.9883 47.8828L42.9424 47.8828L42.9424 7.88281L29.9883 7.88281L29.9883 47.8828ZM62.9424 27.8828L62.9424 -0.00781643L22.9424 -0.00781468L22.9424 27.8828L62.9424 27.8828ZM42.9424 19.9922L52 19.9922L52 -20.0078L42.9424 -20.0078L42.9424 19.9922ZM32 -0.00781508L32 38.1709L72 38.1709L72 -0.00781683L32 -0.00781508ZM52 18.1709L1.61913 18.1709L1.61913 58.1709L52 58.1709L52 18.1709ZM21.6191 38.1709L21.6191 1.22265L-18.3809 1.22266L-18.3809 38.1709L21.6191 38.1709ZM1.61913 21.2227L10.54 21.2227L10.54 -18.7773L1.61913 -18.7773L1.61913 21.2227ZM-9.45997 1.22266L-9.45997 27.8828L30.54 27.8828L30.54 1.22265L-9.45997 1.22266ZM10.54 47.8828L21.2383 47.8828L21.2383 7.88281L10.54 7.88281L10.54 47.8828ZM41.2383 27.8828L41.2383 3.41015L1.23827 3.41016L1.23827 27.8828L41.2383 27.8828ZM21.2383 23.4102L29.9883 23.4102L29.9883 -16.5898L21.2383 -16.5898L21.2383 23.4102Z" fill="white" mask="url(#path-1-outside-1_15_11094)"/>
</svg>
