<svg width="28" height="24" viewBox="0 0 28 24" fill="none" xmlns="http://www.w3.org/2000/svg">
<path d="M4 -1.74846e-07L-6.55671e-07 4L3 4L3 19L5 19L5 4L8 4L4 -1.74846e-07Z" fill="white"/>
<path d="M22.5616 7.95504C22.604 7.99747 22.6464 8.05403 22.6888 8.1106L25.885 12.3674C26.3234 12.9614 26.3021 13.7604 25.7718 14.2907L20.9706 19.092C20.6806 19.3819 20.2917 19.5304 19.9099 19.5304L12.9237 19.5304L12.9166 18.4061C12.9166 18.1232 13.0227 17.8333 13.2419 17.6141C13.3055 17.5505 13.3692 17.5151 13.4328 17.4656L16.3673 15.5494L8.77297 7.95504C8.18607 7.36814 8.18607 6.42062 8.77297 5.83372C9.35987 5.24682 10.3074 5.24682 10.8943 5.83372L15.1369 10.0764L15.6743 9.53896C15.8087 9.40461 15.9642 9.30561 16.134 9.2349L20.9423 7.6227C21.4726 7.4035 22.1231 7.51663 22.5616 7.95504Z" fill="white"/>
</svg>
