<svg width="7" height="11" viewBox="0 0 7 11" fill="none" xmlns="http://www.w3.org/2000/svg">
<path opacity="0.8" d="M5.1199 -9.64864e-06C5.4719 -9.61787e-06 5.77324 0.125323 6.0239 0.37599C6.27457 0.626657 6.3999 0.92799 6.3999 1.27999C6.3999 1.63199 6.27457 1.93332 6.0239 2.18399C5.77324 2.43466 5.4719 2.55999 5.1199 2.55999C4.7679 2.55999 4.46657 2.43466 4.2159 2.18399C3.96524 1.93332 3.8399 1.63199 3.8399 1.27999C3.8399 0.92799 3.96524 0.626656 4.2159 0.37599C4.46657 0.125323 4.7679 -9.67942e-06 5.1199 -9.64864e-06ZM5.1199 3.83999C5.4719 3.83999 5.77324 3.96532 6.0239 4.21599C6.27457 4.46666 6.3999 4.76799 6.3999 5.11999C6.3999 5.47199 6.27457 5.77332 6.0239 6.02399C5.77324 6.27466 5.4719 6.39999 5.1199 6.39999C4.7679 6.39999 4.46657 6.27466 4.2159 6.02399C3.96524 5.77332 3.8399 5.47199 3.8399 5.11999C3.8399 4.76799 3.96524 4.46666 4.2159 4.21599C4.46657 3.96532 4.7679 3.83999 5.1199 3.83999ZM5.1199 7.67999C5.4719 7.67999 5.77324 7.80532 6.0239 8.05599C6.27457 8.30666 6.3999 8.60799 6.3999 8.95999C6.3999 9.31199 6.27457 9.61332 6.0239 9.86399C5.77324 10.1147 5.4719 10.24 5.1199 10.24C4.7679 10.24 4.46657 10.1147 4.2159 9.86399C3.96524 9.61332 3.8399 9.31199 3.8399 8.95999C3.8399 8.60799 3.96524 8.30666 4.2159 8.05599C4.46657 7.80532 4.7679 7.67999 5.1199 7.67999Z" fill="#49454F"/>
<path opacity="0.8" d="M1.28006 -9.64864e-06C1.63206 -9.61787e-06 1.93339 0.125323 2.18406 0.37599C2.43473 0.626657 2.56006 0.92799 2.56006 1.27999C2.56006 1.63199 2.43473 1.93332 2.18406 2.18399C1.93339 2.43466 1.63206 2.55999 1.28006 2.55999C0.928059 2.55999 0.626726 2.43466 0.376059 2.18399C0.125393 1.93332 5.94035e-05 1.63199 5.94343e-05 1.27999C5.94651e-05 0.92799 0.125393 0.626656 0.376059 0.37599C0.626726 0.125323 0.92806 -9.67942e-06 1.28006 -9.64864e-06ZM1.28006 3.83999C1.63206 3.83999 1.93339 3.96532 2.18406 4.21599C2.43473 4.46666 2.56006 4.76799 2.56006 5.11999C2.56006 5.47199 2.43473 5.77332 2.18406 6.02399C1.93339 6.27466 1.63206 6.39999 1.28006 6.39999C0.928059 6.39999 0.626726 6.27466 0.376059 6.02399C0.125392 5.77332 5.90678e-05 5.47199 5.90986e-05 5.11999C5.91293e-05 4.76799 0.125392 4.46666 0.376059 4.21599C0.626726 3.96532 0.928059 3.83999 1.28006 3.83999ZM1.28006 7.67999C1.63206 7.67999 1.93339 7.80532 2.18406 8.05599C2.43473 8.30666 2.56006 8.60799 2.56006 8.95999C2.56006 9.31199 2.43473 9.61332 2.18406 9.86399C1.93339 10.1147 1.63206 10.24 1.28006 10.24C0.928059 10.24 0.626725 10.1147 0.376059 9.86399C0.125392 9.61332 5.87321e-05 9.31199 5.87629e-05 8.95999C5.87936e-05 8.60799 0.125392 8.30666 0.376059 8.05599C0.626725 7.80532 0.928059 7.67999 1.28006 7.67999Z" fill="#49454F"/>
</svg>
