<svg width="21" height="30" viewBox="0 0 21 30" fill="none" xmlns="http://www.w3.org/2000/svg">
<path d="M10 0C4.48 0 0 4.48 0 10C0 15.52 4.48 20 10 20C15.52 20 20 15.52 20 10C20 4.48 15.52 0 10 0ZM10 18C5.58 18 2 14.42 2 10C2 5.58 5.58 2 10 2C14.42 2 18 5.58 18 10C18 14.42 14.42 18 10 18Z" fill="white"/>
<path opacity="0.6" d="M10.7562 18.2826V14.9771C10.7562 13.7575 11.7461 12.7676 12.9657 12.7676C14.1854 12.7676 15.1752 13.7575 15.1752 14.9771V18.2826C16.2446 17.5667 16.9429 16.3559 16.9429 14.9771C16.9429 12.7765 15.1664 11 12.9657 11C10.765 11 8.98857 12.7765 8.98857 14.9771C8.98857 16.3559 9.68678 17.5667 10.7562 18.2826ZM19.4529 22.3746L15.4404 20.3772C15.2901 20.3154 15.131 20.28 14.9631 20.28H14.2914V14.9771C14.2914 14.2436 13.6993 13.6514 12.9657 13.6514C12.2322 13.6514 11.64 14.2436 11.64 14.9771V24.4693C8.45829 23.7976 8.51131 23.8064 8.39642 23.8064C8.12244 23.8064 7.87497 23.9213 7.69821 24.0981L7 24.8051L11.366 29.1711C11.6046 29.4098 11.9405 29.56 12.3029 29.56H18.3039C18.9668 29.56 19.4794 29.0739 19.5766 28.4287L20.2395 23.771C20.2483 23.7092 20.2571 23.6473 20.2571 23.5943C20.2571 23.0463 19.9213 22.5691 19.4529 22.3746Z" fill="white"/>
</svg>
