<svg width="14" height="19" viewBox="0 0 14 19" fill="none" xmlns="http://www.w3.org/2000/svg">
<path d="M3.75619 7.28259V3.97714C3.75619 2.75749 4.74606 1.76762 5.96571 1.76762C7.18537 1.76762 8.17524 2.75749 8.17524 3.97714V7.28259C9.24465 6.5667 9.94286 5.35589 9.94286 3.97714C9.94286 1.77646 8.1664 0 5.96571 0C3.76503 0 1.98857 1.77646 1.98857 3.97714C1.98857 5.35589 2.68678 6.5667 3.75619 7.28259ZM12.4529 11.3746L8.44038 9.37722C8.29013 9.31535 8.13105 9.28 7.96312 9.28H7.29143V3.97714C7.29143 3.24358 6.69928 2.65143 5.96571 2.65143C5.23215 2.65143 4.64 3.24358 4.64 3.97714V13.4693C1.45829 12.7976 1.51131 12.8064 1.39642 12.8064C1.12244 12.8064 0.874971 12.9213 0.698209 13.0981L0 13.8051L4.36602 18.1711C4.60465 18.4098 4.9405 18.56 5.30286 18.56H11.3039C11.9668 18.56 12.4794 18.0739 12.5766 17.4287L13.2395 12.771C13.2483 12.7092 13.2571 12.6473 13.2571 12.5943C13.2571 12.0463 12.9213 11.5691 12.4529 11.3746Z" fill="white"/>
</svg>
